<svg width="46" height="52" viewBox="0 0 46 52" fill="none" xmlns="http://www.w3.org/2000/svg">
<rect x="1" y="28" width="9" height="9" stroke="white" stroke-width="2"/>
<rect x="1" y="1" width="9" height="9" stroke="white" stroke-width="2"/>
<rect x="19" y="8" width="8" height="9" stroke="white" stroke-width="2"/>
<rect x="19" y="34" width="8" height="9" stroke="white" stroke-width="2"/>
<rect x="36" y="21" width="9" height="9" stroke="white" stroke-width="2"/>
<rect x="1" y="42" width="9" height="9" stroke="white" stroke-width="2"/>
<rect x="1" y="15" width="9" height="8" stroke="white" stroke-width="2"/>
<line x1="11" y1="5.5" x2="14" y2="5.5" stroke="white"/>
<line x1="15" y1="12.5" x2="18" y2="12.5" stroke="white"/>
<line x1="28" y1="12.5" x2="31" y2="12.5" stroke="white"/>
<line x1="32" y1="25.5" x2="35" y2="25.5" stroke="white"/>
<line x1="28" y1="38.5" x2="31" y2="38.5" stroke="white"/>
<line x1="15" y1="38.5" x2="18" y2="38.5" stroke="white"/>
<line x1="11" y1="19.5" x2="14" y2="19.5" stroke="white"/>
<line x1="11" y1="32.5" x2="14" y2="32.5" stroke="white"/>
<line x1="11" y1="46.5" x2="14" y2="46.5" stroke="white"/>
<line x1="14.5" y1="5" x2="14.5" y2="20" stroke="white"/>
<line x1="31.5" y1="12" x2="31.5" y2="39" stroke="white"/>
<line x1="14.5" y1="32" x2="14.5" y2="47" stroke="white"/>
</svg>
