<svg width="1290" height="49" viewBox="0 0 1290 49" fill="none" xmlns="http://www.w3.org/2000/svg">
<path d="M3.83789 10.2188L5.84766 3.46875H7.80469L4.83398 12H3.54492L3.83789 10.2188ZM1.98633 3.46875L3.99023 10.2188L4.29492 12H2.99414L0.0410156 3.46875H1.98633ZM7.95703 8.89453V8.77148C7.95703 8.30664 8.02344 7.87891 8.15625 7.48828C8.28906 7.09375 8.48242 6.75195 8.73633 6.46289C8.99023 6.17383 9.30273 5.94922 9.67383 5.78906C10.0449 5.625 10.4707 5.54297 10.9512 5.54297C11.4316 5.54297 11.8594 5.625 12.2344 5.78906C12.6094 5.94922 12.9238 6.17383 13.1777 6.46289C13.4355 6.75195 13.6309 7.09375 13.7637 7.48828C13.8965 7.87891 13.9629 8.30664 13.9629 8.77148V8.89453C13.9629 9.35547 13.8965 9.7832 13.7637 10.1777C13.6309 10.5684 13.4355 10.9102 13.1777 11.2031C12.9238 11.4922 12.6113 11.7168 12.2402 11.877C11.8691 12.0371 11.4434 12.1172 10.9629 12.1172C10.4824 12.1172 10.0547 12.0371 9.67969 11.877C9.30859 11.7168 8.99414 11.4922 8.73633 11.2031C8.48242 10.9102 8.28906 10.5684 8.15625 10.1777C8.02344 9.7832 7.95703 9.35547 7.95703 8.89453ZM9.64453 8.77148V8.89453C9.64453 9.16016 9.66797 9.4082 9.71484 9.63867C9.76172 9.86914 9.83594 10.0723 9.9375 10.248C10.043 10.4199 10.1797 10.5547 10.3477 10.6523C10.5156 10.75 10.7207 10.7988 10.9629 10.7988C11.1973 10.7988 11.3984 10.75 11.5664 10.6523C11.7344 10.5547 11.8691 10.4199 11.9707 10.248C12.0723 10.0723 12.1465 9.86914 12.1934 9.63867C12.2441 9.4082 12.2695 9.16016 12.2695 8.89453V8.77148C12.2695 8.51367 12.2441 8.27148 12.1934 8.04492C12.1465 7.81445 12.0703 7.61133 11.9648 7.43555C11.8633 7.25586 11.7285 7.11523 11.5605 7.01367C11.3926 6.91211 11.1895 6.86133 10.9512 6.86133C10.7129 6.86133 10.5098 6.91211 10.3418 7.01367C10.1777 7.11523 10.043 7.25586 9.9375 7.43555C9.83594 7.61133 9.76172 7.81445 9.71484 8.04492C9.66797 8.27148 9.64453 8.51367 9.64453 8.77148ZM21.4336 8.25586H19.2422L19.2305 7.04883H21.0703C21.3945 7.04883 21.6602 7.00781 21.8672 6.92578C22.0742 6.83984 22.2285 6.7168 22.3301 6.55664C22.4355 6.39258 22.4883 6.19336 22.4883 5.95898C22.4883 5.69336 22.4375 5.47852 22.3359 5.31445C22.2383 5.15039 22.084 5.03125 21.873 4.95703C21.666 4.88281 21.3984 4.8457 21.0703 4.8457H19.8516V12H18.0938V3.46875H21.0703C21.5664 3.46875 22.0098 3.51562 22.4004 3.60938C22.7949 3.70312 23.1289 3.8457 23.4023 4.03711C23.6758 4.22852 23.8848 4.4707 24.0293 4.76367C24.1738 5.05273 24.2461 5.39648 24.2461 5.79492C24.2461 6.14648 24.166 6.4707 24.0059 6.76758C23.8496 7.06445 23.6016 7.30664 23.2617 7.49414C22.9258 7.68164 22.4863 7.78516 21.9434 7.80469L21.4336 8.25586ZM21.3574 12H18.7617L19.4473 10.6289H21.3574C21.666 10.6289 21.918 10.5801 22.1133 10.4824C22.3086 10.3809 22.4531 10.2441 22.5469 10.0723C22.6406 9.90039 22.6875 9.70312 22.6875 9.48047C22.6875 9.23047 22.6445 9.01367 22.5586 8.83008C22.4766 8.64648 22.3438 8.50586 22.1602 8.4082C21.9766 8.30664 21.7344 8.25586 21.4336 8.25586H19.7402L19.752 7.04883H21.8613L22.2656 7.52344C22.7852 7.51562 23.2031 7.60742 23.5195 7.79883C23.8398 7.98633 24.0723 8.23047 24.2168 8.53125C24.3652 8.83203 24.4395 9.1543 24.4395 9.49805C24.4395 10.0449 24.3203 10.5059 24.082 10.8809C23.8438 11.252 23.4941 11.5312 23.0332 11.7188C22.5762 11.9062 22.0176 12 21.3574 12ZM25.3828 8.89453V8.77148C25.3828 8.30664 25.4492 7.87891 25.582 7.48828C25.7148 7.09375 25.9082 6.75195 26.1621 6.46289C26.416 6.17383 26.7285 5.94922 27.0996 5.78906C27.4707 5.625 27.8965 5.54297 28.377 5.54297C28.8574 5.54297 29.2852 5.625 29.6602 5.78906C30.0352 5.94922 30.3496 6.17383 30.6035 6.46289C30.8613 6.75195 31.0566 7.09375 31.1895 7.48828C31.3223 7.87891 31.3887 8.30664 31.3887 8.77148V8.89453C31.3887 9.35547 31.3223 9.7832 31.1895 10.1777C31.0566 10.5684 30.8613 10.9102 30.6035 11.2031C30.3496 11.4922 30.0371 11.7168 29.666 11.877C29.2949 12.0371 28.8691 12.1172 28.3887 12.1172C27.9082 12.1172 27.4805 12.0371 27.1055 11.877C26.7344 11.7168 26.4199 11.4922 26.1621 11.2031C25.9082 10.9102 25.7148 10.5684 25.582 10.1777C25.4492 9.7832 25.3828 9.35547 25.3828 8.89453ZM27.0703 8.77148V8.89453C27.0703 9.16016 27.0938 9.4082 27.1406 9.63867C27.1875 9.86914 27.2617 10.0723 27.3633 10.248C27.4688 10.4199 27.6055 10.5547 27.7734 10.6523C27.9414 10.75 28.1465 10.7988 28.3887 10.7988C28.623 10.7988 28.8242 10.75 28.9922 10.6523C29.1602 10.5547 29.2949 10.4199 29.3965 10.248C29.498 10.0723 29.5723 9.86914 29.6191 9.63867C29.6699 9.4082 29.6953 9.16016 29.6953 8.89453V8.77148C29.6953 8.51367 29.6699 8.27148 29.6191 8.04492C29.5723 7.81445 29.4961 7.61133 29.3906 7.43555C29.2891 7.25586 29.1543 7.11523 28.9863 7.01367C28.8184 6.91211 28.6152 6.86133 28.377 6.86133C28.1387 6.86133 27.9355 6.91211 27.7676 7.01367C27.6035 7.11523 27.4688 7.25586 27.3633 7.43555C27.2617 7.61133 27.1875 7.81445 27.1406 8.04492C27.0938 8.27148 27.0703 8.51367 27.0703 8.77148ZM4.21289 29.3809V23.4688H5.96484V29.3809C5.96484 29.9512 5.83984 30.4414 5.58984 30.8516C5.33984 31.2578 4.99805 31.5703 4.56445 31.7891C4.13477 32.0078 3.65039 32.1172 3.11133 32.1172C2.55273 32.1172 2.05859 32.0234 1.62891 31.8359C1.19922 31.6484 0.861328 31.3613 0.615234 30.9746C0.369141 30.584 0.246094 30.0898 0.246094 29.4922H2.00977C2.00977 29.8047 2.05273 30.0527 2.13867 30.2363C2.22852 30.4199 2.35547 30.5508 2.51953 30.6289C2.68359 30.707 2.88086 30.7461 3.11133 30.7461C3.33398 30.7461 3.52734 30.6934 3.69141 30.5879C3.85547 30.4824 3.98242 30.3281 4.07227 30.125C4.16602 29.9219 4.21289 29.6738 4.21289 29.3809ZM11.1094 30.4824V25.6602H12.7969V32H11.209L11.1094 30.4824ZM11.2969 29.1816L11.7949 29.1699C11.7949 29.5918 11.7461 29.9844 11.6484 30.3477C11.5508 30.707 11.4043 31.0195 11.209 31.2852C11.0137 31.5469 10.7676 31.752 10.4707 31.9004C10.1738 32.0449 9.82422 32.1172 9.42188 32.1172C9.11328 32.1172 8.82812 32.0742 8.56641 31.9883C8.30859 31.8984 8.08594 31.7598 7.89844 31.5723C7.71484 31.3809 7.57031 31.1367 7.46484 30.8398C7.36328 30.5391 7.3125 30.1777 7.3125 29.7559V25.6602H9V29.7676C9 29.9551 9.02148 30.1133 9.06445 30.2422C9.11133 30.3711 9.17578 30.4766 9.25781 30.5586C9.33984 30.6406 9.43555 30.6992 9.54492 30.7344C9.6582 30.7695 9.7832 30.7871 9.91992 30.7871C10.2676 30.7871 10.541 30.7168 10.7402 30.5762C10.9434 30.4355 11.0859 30.2441 11.168 30.002C11.2539 29.7559 11.2969 29.4824 11.2969 29.1816ZM17.0039 32.1172C16.5117 32.1172 16.0703 32.0391 15.6797 31.8828C15.2891 31.7227 14.957 31.502 14.6836 31.2207C14.4141 30.9395 14.207 30.6133 14.0625 30.2422C13.918 29.8672 13.8457 29.4688 13.8457 29.0469V28.8125C13.8457 28.332 13.9141 27.8926 14.0508 27.4941C14.1875 27.0957 14.3828 26.75 14.6367 26.457C14.8945 26.1641 15.207 25.9395 15.5742 25.7832C15.9414 25.623 16.3555 25.543 16.8164 25.543C17.2656 25.543 17.6641 25.6172 18.0117 25.7656C18.3594 25.9141 18.6504 26.125 18.8848 26.3984C19.123 26.6719 19.3027 27 19.4238 27.3828C19.5449 27.7617 19.6055 28.1836 19.6055 28.6484V29.3516H14.5664V28.2266H17.9473V28.0977C17.9473 27.8633 17.9043 27.6543 17.8184 27.4707C17.7363 27.2832 17.6113 27.1348 17.4434 27.0254C17.2754 26.916 17.0605 26.8613 16.7988 26.8613C16.5762 26.8613 16.3848 26.9102 16.2246 27.0078C16.0645 27.1055 15.9336 27.2422 15.832 27.418C15.7344 27.5938 15.6602 27.8008 15.6094 28.0391C15.5625 28.2734 15.5391 28.5312 15.5391 28.8125V29.0469C15.5391 29.3008 15.5742 29.5352 15.6445 29.75C15.7188 29.9648 15.8223 30.1504 15.9551 30.3066C16.0918 30.4629 16.2559 30.584 16.4473 30.6699C16.6426 30.7559 16.8633 30.7988 17.1094 30.7988C17.4141 30.7988 17.6973 30.7402 17.959 30.623C18.2246 30.502 18.4531 30.3203 18.6445 30.0781L19.4648 30.9688C19.332 31.1602 19.1504 31.3438 18.9199 31.5195C18.6934 31.6953 18.4199 31.8398 18.0996 31.9531C17.7793 32.0625 17.4141 32.1172 17.0039 32.1172ZM25.6113 30.6816V32H20.7949V30.6816H25.6113ZM25.5176 26.6328L21.4746 32H20.3438V30.998L24.3691 25.6602H25.5176V26.6328ZM24.9199 25.6602V26.9844H20.4375V25.6602H24.9199ZM32.2793 30.7988C32.4863 30.7988 32.6699 30.7598 32.8301 30.6816C32.9902 30.5996 33.1152 30.4863 33.2051 30.3418C33.2988 30.1934 33.3477 30.0195 33.3516 29.8203H34.9395C34.9355 30.2656 34.8164 30.6621 34.582 31.0098C34.3477 31.3535 34.0332 31.625 33.6387 31.8242C33.2441 32.0195 32.8027 32.1172 32.3145 32.1172C31.8223 32.1172 31.3926 32.0352 31.0254 31.8711C30.6621 31.707 30.3594 31.4805 30.1172 31.1914C29.875 30.8984 29.6934 30.5586 29.5723 30.1719C29.4512 29.7812 29.3906 29.3633 29.3906 28.918V28.748C29.3906 28.2988 29.4512 27.8809 29.5723 27.4941C29.6934 27.1035 29.875 26.7637 30.1172 26.4746C30.3594 26.1816 30.6621 25.9531 31.0254 25.7891C31.3887 25.625 31.8145 25.543 32.3027 25.543C32.8223 25.543 33.2773 25.6426 33.668 25.8418C34.0625 26.041 34.3711 26.3262 34.5938 26.6973C34.8203 27.0645 34.9355 27.5 34.9395 28.0039H33.3516C33.3477 27.793 33.3027 27.6016 33.2168 27.4297C33.1348 27.2578 33.0137 27.1211 32.8535 27.0195C32.6973 26.9141 32.5039 26.8613 32.2734 26.8613C32.0273 26.8613 31.8262 26.9141 31.6699 27.0195C31.5137 27.1211 31.3926 27.2617 31.3066 27.4414C31.2207 27.6172 31.1602 27.8184 31.125 28.0449C31.0938 28.2676 31.0781 28.502 31.0781 28.748V28.918C31.0781 29.1641 31.0938 29.4004 31.125 29.627C31.1562 29.8535 31.2148 30.0547 31.3008 30.2305C31.3906 30.4062 31.5137 30.5449 31.6699 30.6465C31.8262 30.748 32.0293 30.7988 32.2793 30.7988ZM38.8359 32.1172C38.3438 32.1172 37.9023 32.0391 37.5117 31.8828C37.1211 31.7227 36.7891 31.502 36.5156 31.2207C36.2461 30.9395 36.0391 30.6133 35.8945 30.2422C35.75 29.8672 35.6777 29.4688 35.6777 29.0469V28.8125C35.6777 28.332 35.7461 27.8926 35.8828 27.4941C36.0195 27.0957 36.2148 26.75 36.4688 26.457C36.7266 26.1641 37.0391 25.9395 37.4062 25.7832C37.7734 25.623 38.1875 25.543 38.6484 25.543C39.0977 25.543 39.4961 25.6172 39.8438 25.7656C40.1914 25.9141 40.4824 26.125 40.7168 26.3984C40.9551 26.6719 41.1348 27 41.2559 27.3828C41.377 27.7617 41.4375 28.1836 41.4375 28.6484V29.3516H36.3984V28.2266H39.7793V28.0977C39.7793 27.8633 39.7363 27.6543 39.6504 27.4707C39.5684 27.2832 39.4434 27.1348 39.2754 27.0254C39.1074 26.916 38.8926 26.8613 38.6309 26.8613C38.4082 26.8613 38.2168 26.9102 38.0566 27.0078C37.8965 27.1055 37.7656 27.2422 37.6641 27.418C37.5664 27.5938 37.4922 27.8008 37.4414 28.0391C37.3945 28.2734 37.3711 28.5312 37.3711 28.8125V29.0469C37.3711 29.3008 37.4062 29.5352 37.4766 29.75C37.5508 29.9648 37.6543 30.1504 37.7871 30.3066C37.9238 30.4629 38.0879 30.584 38.2793 30.6699C38.4746 30.7559 38.6953 30.7988 38.9414 30.7988C39.2461 30.7988 39.5293 30.7402 39.791 30.623C40.0566 30.502 40.2852 30.3203 40.4766 30.0781L41.2969 30.9688C41.1641 31.1602 40.9824 31.3438 40.752 31.5195C40.5254 31.6953 40.252 31.8398 39.9316 31.9531C39.6113 32.0625 39.2461 32.1172 38.8359 32.1172ZM44.0508 27.0137V32H42.3633V25.6602H43.9453L44.0508 27.0137ZM43.8047 28.6074H43.3477C43.3477 28.1387 43.4082 27.7168 43.5293 27.3418C43.6504 26.9629 43.8203 26.6406 44.0391 26.375C44.2578 26.1055 44.5176 25.9004 44.8184 25.7598C45.123 25.6152 45.4629 25.543 45.8379 25.543C46.1348 25.543 46.4062 25.5859 46.6523 25.6719C46.8984 25.7578 47.1094 25.8945 47.2852 26.082C47.4648 26.2695 47.6016 26.5176 47.6953 26.8262C47.793 27.1348 47.8418 27.5117 47.8418 27.957V32H46.1426V27.9512C46.1426 27.6699 46.1035 27.4512 46.0254 27.2949C45.9473 27.1387 45.832 27.0293 45.6797 26.9668C45.5312 26.9004 45.3477 26.8672 45.1289 26.8672C44.9023 26.8672 44.7051 26.9121 44.5371 27.002C44.373 27.0918 44.2363 27.2168 44.127 27.377C44.0215 27.5332 43.9414 27.7168 43.8867 27.9277C43.832 28.1387 43.8047 28.3652 43.8047 28.6074ZM52.2305 25.6602V26.8555H48.5391V25.6602H52.2305ZM49.4531 24.0957H51.1406V30.0898C51.1406 30.2734 51.1641 30.4141 51.2109 30.5117C51.2617 30.6094 51.3359 30.6777 51.4336 30.7168C51.5312 30.752 51.6543 30.7695 51.8027 30.7695C51.9082 30.7695 52.002 30.7656 52.084 30.7578C52.1699 30.7461 52.2422 30.7344 52.3008 30.7227L52.3066 31.9648C52.1621 32.0117 52.0059 32.0488 51.8379 32.0762C51.6699 32.1035 51.4844 32.1172 51.2812 32.1172C50.9102 32.1172 50.5859 32.0566 50.3086 31.9355C50.0352 31.8105 49.8242 31.6113 49.6758 31.3379C49.5273 31.0645 49.4531 30.7051 49.4531 30.2598V24.0957ZM54.8789 27.043V32H53.1914V25.6602H54.7793L54.8789 27.043ZM56.7891 25.6191L56.7598 27.1836C56.6777 27.1719 56.5781 27.1621 56.4609 27.1543C56.3477 27.1426 56.2441 27.1367 56.1504 27.1367C55.9121 27.1367 55.7051 27.168 55.5293 27.2305C55.3574 27.2891 55.2129 27.377 55.0957 27.4941C54.9824 27.6113 54.8965 27.7539 54.8379 27.9219C54.7832 28.0898 54.752 28.2812 54.7441 28.4961L54.4043 28.3906C54.4043 27.9805 54.4453 27.6035 54.5273 27.2598C54.6094 26.9121 54.7285 26.6094 54.8848 26.3516C55.0449 26.0938 55.2402 25.8945 55.4707 25.7539C55.7012 25.6133 55.9648 25.543 56.2617 25.543C56.3555 25.543 56.4512 25.5508 56.5488 25.5664C56.6465 25.5781 56.7266 25.5957 56.7891 25.6191ZM60.8086 30.5703V27.7461C60.8086 27.543 60.7754 27.3691 60.709 27.2246C60.6426 27.0762 60.5391 26.9609 60.3984 26.8789C60.2617 26.7969 60.084 26.7559 59.8652 26.7559C59.6777 26.7559 59.5156 26.7891 59.3789 26.8555C59.2422 26.918 59.1367 27.0098 59.0625 27.1309C58.9883 27.248 58.9512 27.3867 58.9512 27.5469H57.2637C57.2637 27.2773 57.3262 27.0215 57.4512 26.7793C57.5762 26.5371 57.7578 26.3242 57.9961 26.1406C58.2344 25.9531 58.5176 25.8066 58.8457 25.7012C59.1777 25.5957 59.5488 25.543 59.959 25.543C60.4512 25.543 60.8887 25.625 61.2715 25.7891C61.6543 25.9531 61.9551 26.1992 62.1738 26.5273C62.3965 26.8555 62.5078 27.2656 62.5078 27.7578V30.4707C62.5078 30.8184 62.5293 31.1035 62.5723 31.3262C62.6152 31.5449 62.6777 31.7363 62.7598 31.9004V32H61.0547C60.9727 31.8281 60.9102 31.6133 60.8672 31.3555C60.8281 31.0938 60.8086 30.832 60.8086 30.5703ZM61.0312 28.1387L61.043 29.0938H60.0996C59.877 29.0938 59.6836 29.1191 59.5195 29.1699C59.3555 29.2207 59.2207 29.293 59.1152 29.3867C59.0098 29.4766 58.9316 29.582 58.8809 29.7031C58.834 29.8242 58.8105 29.957 58.8105 30.1016C58.8105 30.2461 58.8438 30.377 58.9102 30.4941C58.9766 30.6074 59.0723 30.6973 59.1973 30.7637C59.3223 30.8262 59.4688 30.8574 59.6367 30.8574C59.8906 30.8574 60.1113 30.8066 60.2988 30.7051C60.4863 30.6035 60.6309 30.4785 60.7324 30.3301C60.8379 30.1816 60.8926 30.041 60.8965 29.9082L61.3418 30.623C61.2793 30.7832 61.1934 30.9492 61.084 31.1211C60.9785 31.293 60.8438 31.4551 60.6797 31.6074C60.5156 31.7559 60.3184 31.8789 60.0879 31.9766C59.8574 32.0703 59.584 32.1172 59.2676 32.1172C58.8652 32.1172 58.5 32.0371 58.1719 31.877C57.8477 31.7129 57.5898 31.4883 57.3984 31.2031C57.2109 30.9141 57.1172 30.5859 57.1172 30.2188C57.1172 29.8867 57.1797 29.5918 57.3047 29.334C57.4297 29.0762 57.6133 28.8594 57.8555 28.6836C58.1016 28.5039 58.4082 28.3691 58.7754 28.2793C59.1426 28.1855 59.5684 28.1387 60.0527 28.1387H61.0312ZM65.5898 23V32H63.8965V23H65.5898Z" fill="black"/>
<path d="M439.762 9.46875H442.943C443.596 9.46875 444.156 9.56641 444.625 9.76172C445.098 9.95703 445.461 10.2461 445.715 10.6289C445.969 11.0117 446.096 11.4824 446.096 12.041C446.096 12.498 446.018 12.8906 445.861 13.2188C445.709 13.543 445.492 13.8145 445.211 14.0332C444.934 14.248 444.607 14.4199 444.232 14.5488L443.676 14.8418H440.91L440.898 13.4707H442.955C443.264 13.4707 443.52 13.416 443.723 13.3066C443.926 13.1973 444.078 13.0449 444.18 12.8496C444.285 12.6543 444.338 12.4277 444.338 12.1699C444.338 11.8965 444.287 11.6602 444.186 11.4609C444.084 11.2617 443.93 11.1094 443.723 11.0039C443.516 10.8984 443.256 10.8457 442.943 10.8457H441.52V18H439.762V9.46875ZM444.531 18L442.586 14.1973L444.443 14.1855L446.412 17.918V18H444.531ZM450.262 18.1172C449.77 18.1172 449.328 18.0391 448.938 17.8828C448.547 17.7227 448.215 17.502 447.941 17.2207C447.672 16.9395 447.465 16.6133 447.32 16.2422C447.176 15.8672 447.104 15.4688 447.104 15.0469V14.8125C447.104 14.332 447.172 13.8926 447.309 13.4941C447.445 13.0957 447.641 12.75 447.895 12.457C448.152 12.1641 448.465 11.9395 448.832 11.7832C449.199 11.623 449.613 11.543 450.074 11.543C450.523 11.543 450.922 11.6172 451.27 11.7656C451.617 11.9141 451.908 12.125 452.143 12.3984C452.381 12.6719 452.561 13 452.682 13.3828C452.803 13.7617 452.863 14.1836 452.863 14.6484V15.3516H447.824V14.2266H451.205V14.0977C451.205 13.8633 451.162 13.6543 451.076 13.4707C450.994 13.2832 450.869 13.1348 450.701 13.0254C450.533 12.916 450.318 12.8613 450.057 12.8613C449.834 12.8613 449.643 12.9102 449.482 13.0078C449.322 13.1055 449.191 13.2422 449.09 13.418C448.992 13.5938 448.918 13.8008 448.867 14.0391C448.82 14.2734 448.797 14.5312 448.797 14.8125V15.0469C448.797 15.3008 448.832 15.5352 448.902 15.75C448.977 15.9648 449.08 16.1504 449.213 16.3066C449.35 16.4629 449.514 16.584 449.705 16.6699C449.9 16.7559 450.121 16.7988 450.367 16.7988C450.672 16.7988 450.955 16.7402 451.217 16.623C451.482 16.502 451.711 16.3203 451.902 16.0781L452.723 16.9688C452.59 17.1602 452.408 17.3438 452.178 17.5195C451.951 17.6953 451.678 17.8398 451.357 17.9531C451.037 18.0625 450.672 18.1172 450.262 18.1172ZM457.838 11.6602H459.367V17.7891C459.367 18.3672 459.238 18.8574 458.98 19.2598C458.727 19.666 458.371 19.9727 457.914 20.1797C457.457 20.3906 456.926 20.4961 456.32 20.4961C456.055 20.4961 455.773 20.4609 455.477 20.3906C455.184 20.3203 454.902 20.2109 454.633 20.0625C454.367 19.9141 454.145 19.7266 453.965 19.5L454.709 18.5039C454.904 18.7305 455.131 18.9062 455.389 19.0312C455.646 19.1602 455.932 19.2246 456.244 19.2246C456.549 19.2246 456.807 19.168 457.018 19.0547C457.229 18.9453 457.391 18.7832 457.504 18.5684C457.617 18.3574 457.674 18.1016 457.674 17.8008V13.125L457.838 11.6602ZM453.572 14.9062V14.7832C453.572 14.2988 453.631 13.8594 453.748 13.4648C453.869 13.0664 454.039 12.7246 454.258 12.4395C454.48 12.1543 454.75 11.9336 455.066 11.7773C455.383 11.6211 455.74 11.543 456.139 11.543C456.561 11.543 456.914 11.6211 457.199 11.7773C457.484 11.9336 457.719 12.1562 457.902 12.4453C458.086 12.7305 458.229 13.0684 458.33 13.459C458.436 13.8457 458.518 14.2695 458.576 14.7305V15C458.518 15.4414 458.43 15.8516 458.312 16.2305C458.195 16.6094 458.041 16.9414 457.85 17.2266C457.658 17.5078 457.42 17.7266 457.135 17.8828C456.854 18.0391 456.518 18.1172 456.127 18.1172C455.736 18.1172 455.383 18.0371 455.066 17.877C454.754 17.7168 454.486 17.4922 454.264 17.2031C454.041 16.9141 453.869 16.5742 453.748 16.1836C453.631 15.793 453.572 15.3672 453.572 14.9062ZM455.26 14.7832V14.9062C455.26 15.168 455.285 15.4121 455.336 15.6387C455.387 15.8652 455.465 16.0664 455.57 16.2422C455.68 16.4141 455.814 16.5488 455.975 16.6465C456.139 16.7402 456.332 16.7871 456.555 16.7871C456.863 16.7871 457.115 16.7227 457.311 16.5938C457.506 16.4609 457.652 16.2793 457.75 16.0488C457.848 15.8184 457.904 15.5527 457.92 15.252V14.4844C457.912 14.2383 457.879 14.0176 457.82 13.8223C457.762 13.623 457.68 13.4531 457.574 13.3125C457.469 13.1719 457.332 13.0625 457.164 12.9844C456.996 12.9062 456.797 12.8672 456.566 12.8672C456.344 12.8672 456.15 12.918 455.986 13.0195C455.826 13.1172 455.691 13.252 455.582 13.4238C455.477 13.5957 455.396 13.7988 455.342 14.0332C455.287 14.2637 455.26 14.5137 455.26 14.7832ZM462.461 11.6602V18H460.768V11.6602H462.461ZM460.662 10.0078C460.662 9.76172 460.748 9.55859 460.92 9.39844C461.092 9.23828 461.322 9.1582 461.611 9.1582C461.896 9.1582 462.125 9.23828 462.297 9.39844C462.473 9.55859 462.561 9.76172 462.561 10.0078C462.561 10.2539 462.473 10.457 462.297 10.6172C462.125 10.7773 461.896 10.8574 461.611 10.8574C461.322 10.8574 461.092 10.7773 460.92 10.6172C460.748 10.457 460.662 10.2539 460.662 10.0078ZM467.283 16.248C467.283 16.127 467.248 16.0176 467.178 15.9199C467.107 15.8223 466.977 15.7324 466.785 15.6504C466.598 15.5645 466.326 15.4863 465.971 15.416C465.65 15.3457 465.352 15.2578 465.074 15.1523C464.801 15.043 464.562 14.9121 464.359 14.7598C464.16 14.6074 464.004 14.4277 463.891 14.2207C463.777 14.0098 463.721 13.7695 463.721 13.5C463.721 13.2344 463.777 12.9844 463.891 12.75C464.008 12.5156 464.174 12.3086 464.389 12.1289C464.607 11.9453 464.873 11.8027 465.186 11.7012C465.502 11.5957 465.857 11.543 466.252 11.543C466.803 11.543 467.275 11.6309 467.67 11.8066C468.068 11.9824 468.373 12.2246 468.584 12.5332C468.799 12.8379 468.906 13.1855 468.906 13.5762H467.219C467.219 13.4121 467.184 13.2656 467.113 13.1367C467.047 13.0039 466.941 12.9004 466.797 12.8262C466.656 12.748 466.473 12.709 466.246 12.709C466.059 12.709 465.896 12.7422 465.76 12.8086C465.623 12.8711 465.518 12.957 465.443 13.0664C465.373 13.1719 465.338 13.2891 465.338 13.418C465.338 13.5156 465.357 13.6035 465.396 13.6816C465.439 13.7559 465.508 13.8242 465.602 13.8867C465.695 13.9492 465.816 14.0078 465.965 14.0625C466.117 14.1133 466.305 14.1602 466.527 14.2031C466.984 14.2969 467.393 14.4199 467.752 14.5723C468.111 14.7207 468.396 14.9238 468.607 15.1816C468.818 15.4355 468.924 15.7695 468.924 16.1836C468.924 16.4648 468.861 16.7227 468.736 16.957C468.611 17.1914 468.432 17.3965 468.197 17.5723C467.963 17.7441 467.682 17.8789 467.354 17.9766C467.029 18.0703 466.664 18.1172 466.258 18.1172C465.668 18.1172 465.168 18.0117 464.758 17.8008C464.352 17.5898 464.043 17.3223 463.832 16.998C463.625 16.6699 463.521 16.334 463.521 15.9902H465.121C465.129 16.2207 465.188 16.4062 465.297 16.5469C465.41 16.6875 465.553 16.7891 465.725 16.8516C465.9 16.9141 466.09 16.9453 466.293 16.9453C466.512 16.9453 466.693 16.916 466.838 16.8574C466.982 16.7949 467.092 16.7129 467.166 16.6113C467.244 16.5059 467.283 16.3848 467.283 16.248ZM473.125 11.6602V12.8555H469.434V11.6602H473.125ZM470.348 10.0957H472.035V16.0898C472.035 16.2734 472.059 16.4141 472.105 16.5117C472.156 16.6094 472.23 16.6777 472.328 16.7168C472.426 16.752 472.549 16.7695 472.697 16.7695C472.803 16.7695 472.896 16.7656 472.979 16.7578C473.064 16.7461 473.137 16.7344 473.195 16.7227L473.201 17.9648C473.057 18.0117 472.9 18.0488 472.732 18.0762C472.564 18.1035 472.379 18.1172 472.176 18.1172C471.805 18.1172 471.48 18.0566 471.203 17.9355C470.93 17.8105 470.719 17.6113 470.57 17.3379C470.422 17.0645 470.348 16.7051 470.348 16.2598V10.0957ZM475.773 13.043V18H474.086V11.6602H475.674L475.773 13.043ZM477.684 11.6191L477.654 13.1836C477.572 13.1719 477.473 13.1621 477.355 13.1543C477.242 13.1426 477.139 13.1367 477.045 13.1367C476.807 13.1367 476.6 13.168 476.424 13.2305C476.252 13.2891 476.107 13.377 475.99 13.4941C475.877 13.6113 475.791 13.7539 475.732 13.9219C475.678 14.0898 475.646 14.2812 475.639 14.4961L475.299 14.3906C475.299 13.9805 475.34 13.6035 475.422 13.2598C475.504 12.9121 475.623 12.6094 475.779 12.3516C475.939 12.0938 476.135 11.8945 476.365 11.7539C476.596 11.6133 476.859 11.543 477.156 11.543C477.25 11.543 477.346 11.5508 477.443 11.5664C477.541 11.5781 477.621 11.5957 477.684 11.6191ZM478.035 14.8945V14.7715C478.035 14.3066 478.102 13.8789 478.234 13.4883C478.367 13.0938 478.561 12.752 478.814 12.4629C479.068 12.1738 479.381 11.9492 479.752 11.7891C480.123 11.625 480.549 11.543 481.029 11.543C481.51 11.543 481.938 11.625 482.312 11.7891C482.688 11.9492 483.002 12.1738 483.256 12.4629C483.514 12.752 483.709 13.0938 483.842 13.4883C483.975 13.8789 484.041 14.3066 484.041 14.7715V14.8945C484.041 15.3555 483.975 15.7832 483.842 16.1777C483.709 16.5684 483.514 16.9102 483.256 17.2031C483.002 17.4922 482.689 17.7168 482.318 17.877C481.947 18.0371 481.521 18.1172 481.041 18.1172C480.561 18.1172 480.133 18.0371 479.758 17.877C479.387 17.7168 479.072 17.4922 478.814 17.2031C478.561 16.9102 478.367 16.5684 478.234 16.1777C478.102 15.7832 478.035 15.3555 478.035 14.8945ZM479.723 14.7715V14.8945C479.723 15.1602 479.746 15.4082 479.793 15.6387C479.84 15.8691 479.914 16.0723 480.016 16.248C480.121 16.4199 480.258 16.5547 480.426 16.6523C480.594 16.75 480.799 16.7988 481.041 16.7988C481.275 16.7988 481.477 16.75 481.645 16.6523C481.812 16.5547 481.947 16.4199 482.049 16.248C482.15 16.0723 482.225 15.8691 482.271 15.6387C482.322 15.4082 482.348 15.1602 482.348 14.8945V14.7715C482.348 14.5137 482.322 14.2715 482.271 14.0449C482.225 13.8145 482.148 13.6113 482.043 13.4355C481.941 13.2559 481.807 13.1152 481.639 13.0137C481.471 12.9121 481.268 12.8613 481.029 12.8613C480.791 12.8613 480.588 12.9121 480.42 13.0137C480.256 13.1152 480.121 13.2559 480.016 13.4355C479.914 13.6113 479.84 13.8145 479.793 14.0449C479.746 14.2715 479.723 14.5137 479.723 14.7715ZM444.707 35.1699H446.459C446.424 35.7441 446.266 36.2539 445.984 36.6992C445.707 37.1445 445.318 37.4922 444.818 37.7422C444.322 37.9922 443.725 38.1172 443.025 38.1172C442.479 38.1172 441.988 38.0234 441.555 37.8359C441.121 37.6445 440.75 37.3711 440.441 37.0156C440.137 36.6602 439.904 36.2305 439.744 35.7266C439.584 35.2227 439.504 34.6582 439.504 34.0332V33.4414C439.504 32.8164 439.586 32.252 439.75 31.748C439.918 31.2402 440.156 30.8086 440.465 30.4531C440.777 30.0977 441.15 29.8242 441.584 29.6328C442.018 29.4414 442.502 29.3457 443.037 29.3457C443.748 29.3457 444.348 29.4746 444.836 29.7324C445.328 29.9902 445.709 30.3457 445.979 30.7988C446.252 31.252 446.416 31.7676 446.471 32.3457H444.713C444.693 32.002 444.625 31.7109 444.508 31.4727C444.391 31.2305 444.213 31.0488 443.975 30.9277C443.74 30.8027 443.428 30.7402 443.037 30.7402C442.744 30.7402 442.488 30.7949 442.27 30.9043C442.051 31.0137 441.867 31.1797 441.719 31.4023C441.57 31.625 441.459 31.9062 441.385 32.2461C441.314 32.582 441.279 32.9766 441.279 33.4297V34.0332C441.279 34.4746 441.312 34.8633 441.379 35.1992C441.445 35.5312 441.547 35.8125 441.684 36.043C441.824 36.2695 442.004 36.4414 442.223 36.5586C442.445 36.6719 442.713 36.7285 443.025 36.7285C443.393 36.7285 443.695 36.6699 443.934 36.5527C444.172 36.4355 444.354 36.2617 444.479 36.0312C444.607 35.8008 444.684 35.5137 444.707 35.1699ZM447.238 34.8945V34.7715C447.238 34.3066 447.305 33.8789 447.438 33.4883C447.57 33.0938 447.764 32.752 448.018 32.4629C448.271 32.1738 448.584 31.9492 448.955 31.7891C449.326 31.625 449.752 31.543 450.232 31.543C450.713 31.543 451.141 31.625 451.516 31.7891C451.891 31.9492 452.205 32.1738 452.459 32.4629C452.717 32.752 452.912 33.0938 453.045 33.4883C453.178 33.8789 453.244 34.3066 453.244 34.7715V34.8945C453.244 35.3555 453.178 35.7832 453.045 36.1777C452.912 36.5684 452.717 36.9102 452.459 37.2031C452.205 37.4922 451.893 37.7168 451.521 37.877C451.15 38.0371 450.725 38.1172 450.244 38.1172C449.764 38.1172 449.336 38.0371 448.961 37.877C448.59 37.7168 448.275 37.4922 448.018 37.2031C447.764 36.9102 447.57 36.5684 447.438 36.1777C447.305 35.7832 447.238 35.3555 447.238 34.8945ZM448.926 34.7715V34.8945C448.926 35.1602 448.949 35.4082 448.996 35.6387C449.043 35.8691 449.117 36.0723 449.219 36.248C449.324 36.4199 449.461 36.5547 449.629 36.6523C449.797 36.75 450.002 36.7988 450.244 36.7988C450.479 36.7988 450.68 36.75 450.848 36.6523C451.016 36.5547 451.15 36.4199 451.252 36.248C451.354 36.0723 451.428 35.8691 451.475 35.6387C451.525 35.4082 451.551 35.1602 451.551 34.8945V34.7715C451.551 34.5137 451.525 34.2715 451.475 34.0449C451.428 33.8145 451.352 33.6113 451.246 33.4355C451.145 33.2559 451.01 33.1152 450.842 33.0137C450.674 32.9121 450.471 32.8613 450.232 32.8613C449.994 32.8613 449.791 32.9121 449.623 33.0137C449.459 33.1152 449.324 33.2559 449.219 33.4355C449.117 33.6113 449.043 33.8145 448.996 34.0449C448.949 34.2715 448.926 34.5137 448.926 34.7715ZM455.934 33.0137V38H454.246V31.6602H455.828L455.934 33.0137ZM455.688 34.6074H455.23C455.23 34.1387 455.291 33.7168 455.412 33.3418C455.533 32.9629 455.703 32.6406 455.922 32.375C456.141 32.1055 456.4 31.9004 456.701 31.7598C457.006 31.6152 457.346 31.543 457.721 31.543C458.018 31.543 458.289 31.5859 458.535 31.6719C458.781 31.7578 458.992 31.8945 459.168 32.082C459.348 32.2695 459.484 32.5176 459.578 32.8262C459.676 33.1348 459.725 33.5117 459.725 33.957V38H458.025V33.9512C458.025 33.6699 457.986 33.4512 457.908 33.2949C457.83 33.1387 457.715 33.0293 457.562 32.9668C457.414 32.9004 457.23 32.8672 457.012 32.8672C456.785 32.8672 456.588 32.9121 456.42 33.002C456.256 33.0918 456.119 33.2168 456.01 33.377C455.904 33.5332 455.824 33.7168 455.77 33.9277C455.715 34.1387 455.688 34.3652 455.688 34.6074ZM464.436 36.248C464.436 36.127 464.4 36.0176 464.33 35.9199C464.26 35.8223 464.129 35.7324 463.938 35.6504C463.75 35.5645 463.479 35.4863 463.123 35.416C462.803 35.3457 462.504 35.2578 462.227 35.1523C461.953 35.043 461.715 34.9121 461.512 34.7598C461.312 34.6074 461.156 34.4277 461.043 34.2207C460.93 34.0098 460.873 33.7695 460.873 33.5C460.873 33.2344 460.93 32.9844 461.043 32.75C461.16 32.5156 461.326 32.3086 461.541 32.1289C461.76 31.9453 462.025 31.8027 462.338 31.7012C462.654 31.5957 463.01 31.543 463.404 31.543C463.955 31.543 464.428 31.6309 464.822 31.8066C465.221 31.9824 465.525 32.2246 465.736 32.5332C465.951 32.8379 466.059 33.1855 466.059 33.5762H464.371C464.371 33.4121 464.336 33.2656 464.266 33.1367C464.199 33.0039 464.094 32.9004 463.949 32.8262C463.809 32.748 463.625 32.709 463.398 32.709C463.211 32.709 463.049 32.7422 462.912 32.8086C462.775 32.8711 462.67 32.957 462.596 33.0664C462.525 33.1719 462.49 33.2891 462.49 33.418C462.49 33.5156 462.51 33.6035 462.549 33.6816C462.592 33.7559 462.66 33.8242 462.754 33.8867C462.848 33.9492 462.969 34.0078 463.117 34.0625C463.27 34.1133 463.457 34.1602 463.68 34.2031C464.137 34.2969 464.545 34.4199 464.904 34.5723C465.264 34.7207 465.549 34.9238 465.76 35.1816C465.971 35.4355 466.076 35.7695 466.076 36.1836C466.076 36.4648 466.014 36.7227 465.889 36.957C465.764 37.1914 465.584 37.3965 465.35 37.5723C465.115 37.7441 464.834 37.8789 464.506 37.9766C464.182 38.0703 463.816 38.1172 463.41 38.1172C462.82 38.1172 462.32 38.0117 461.91 37.8008C461.504 37.5898 461.195 37.3223 460.984 36.998C460.777 36.6699 460.674 36.334 460.674 35.9902H462.273C462.281 36.2207 462.34 36.4062 462.449 36.5469C462.562 36.6875 462.705 36.7891 462.877 36.8516C463.053 36.9141 463.242 36.9453 463.445 36.9453C463.664 36.9453 463.846 36.916 463.99 36.8574C464.135 36.7949 464.244 36.7129 464.318 36.6113C464.396 36.5059 464.436 36.3848 464.436 36.248ZM466.902 34.8945V34.7715C466.902 34.3066 466.969 33.8789 467.102 33.4883C467.234 33.0938 467.428 32.752 467.682 32.4629C467.936 32.1738 468.248 31.9492 468.619 31.7891C468.99 31.625 469.416 31.543 469.896 31.543C470.377 31.543 470.805 31.625 471.18 31.7891C471.555 31.9492 471.869 32.1738 472.123 32.4629C472.381 32.752 472.576 33.0938 472.709 33.4883C472.842 33.8789 472.908 34.3066 472.908 34.7715V34.8945C472.908 35.3555 472.842 35.7832 472.709 36.1777C472.576 36.5684 472.381 36.9102 472.123 37.2031C471.869 37.4922 471.557 37.7168 471.186 37.877C470.814 38.0371 470.389 38.1172 469.908 38.1172C469.428 38.1172 469 38.0371 468.625 37.877C468.254 37.7168 467.939 37.4922 467.682 37.2031C467.428 36.9102 467.234 36.5684 467.102 36.1777C466.969 35.7832 466.902 35.3555 466.902 34.8945ZM468.59 34.7715V34.8945C468.59 35.1602 468.613 35.4082 468.66 35.6387C468.707 35.8691 468.781 36.0723 468.883 36.248C468.988 36.4199 469.125 36.5547 469.293 36.6523C469.461 36.75 469.666 36.7988 469.908 36.7988C470.143 36.7988 470.344 36.75 470.512 36.6523C470.68 36.5547 470.814 36.4199 470.916 36.248C471.018 36.0723 471.092 35.8691 471.139 35.6387C471.189 35.4082 471.215 35.1602 471.215 34.8945V34.7715C471.215 34.5137 471.189 34.2715 471.139 34.0449C471.092 33.8145 471.016 33.6113 470.91 33.4355C470.809 33.2559 470.674 33.1152 470.506 33.0137C470.338 32.9121 470.135 32.8613 469.896 32.8613C469.658 32.8613 469.455 32.9121 469.287 33.0137C469.123 33.1152 468.988 33.2559 468.883 33.4355C468.781 33.6113 468.707 33.8145 468.66 34.0449C468.613 34.2715 468.59 34.5137 468.59 34.7715ZM475.727 29V38H474.033V29H475.727ZM478.902 31.6602V38H477.209V31.6602H478.902ZM477.104 30.0078C477.104 29.7617 477.189 29.5586 477.361 29.3984C477.533 29.2383 477.764 29.1582 478.053 29.1582C478.338 29.1582 478.566 29.2383 478.738 29.3984C478.914 29.5586 479.002 29.7617 479.002 30.0078C479.002 30.2539 478.914 30.457 478.738 30.6172C478.566 30.7773 478.338 30.8574 478.053 30.8574C477.764 30.8574 477.533 30.7773 477.361 30.6172C477.189 30.457 477.104 30.2539 477.104 30.0078ZM484.041 36.6172V29H485.74V38H484.211L484.041 36.6172ZM480.033 34.9062V34.7832C480.033 34.2988 480.088 33.8594 480.197 33.4648C480.307 33.0664 480.467 32.7246 480.678 32.4395C480.889 32.1543 481.148 31.9336 481.457 31.7773C481.766 31.6211 482.117 31.543 482.512 31.543C482.883 31.543 483.207 31.6211 483.484 31.7773C483.766 31.9336 484.004 32.1562 484.199 32.4453C484.398 32.7305 484.559 33.0684 484.68 33.459C484.801 33.8457 484.889 34.2695 484.943 34.7305V35C484.889 35.4414 484.801 35.8516 484.68 36.2305C484.559 36.6094 484.398 36.9414 484.199 37.2266C484.004 37.5078 483.766 37.7266 483.484 37.8828C483.203 38.0391 482.875 38.1172 482.5 38.1172C482.105 38.1172 481.754 38.0371 481.445 37.877C481.141 37.7168 480.883 37.4922 480.672 37.2031C480.465 36.9141 480.307 36.5742 480.197 36.1836C480.088 35.793 480.033 35.3672 480.033 34.9062ZM481.721 34.7832V34.9062C481.721 35.168 481.74 35.4121 481.779 35.6387C481.822 35.8652 481.891 36.0664 481.984 36.2422C482.082 36.4141 482.207 36.5488 482.359 36.6465C482.516 36.7402 482.705 36.7871 482.928 36.7871C483.217 36.7871 483.455 36.7227 483.643 36.5938C483.83 36.4609 483.973 36.2793 484.07 36.0488C484.172 35.8184 484.23 35.5527 484.246 35.252V34.4844C484.234 34.2383 484.199 34.0176 484.141 33.8223C484.086 33.623 484.004 33.4531 483.895 33.3125C483.789 33.1719 483.656 33.0625 483.496 32.9844C483.34 32.9062 483.154 32.8672 482.939 32.8672C482.721 32.8672 482.533 32.918 482.377 33.0195C482.221 33.1172 482.094 33.252 481.996 33.4238C481.902 33.5957 481.832 33.7988 481.785 34.0332C481.742 34.2637 481.721 34.5137 481.721 34.7832ZM490.48 36.5703V33.7461C490.48 33.543 490.447 33.3691 490.381 33.2246C490.314 33.0762 490.211 32.9609 490.07 32.8789C489.934 32.7969 489.756 32.7559 489.537 32.7559C489.35 32.7559 489.188 32.7891 489.051 32.8555C488.914 32.918 488.809 33.0098 488.734 33.1309C488.66 33.248 488.623 33.3867 488.623 33.5469H486.936C486.936 33.2773 486.998 33.0215 487.123 32.7793C487.248 32.5371 487.43 32.3242 487.668 32.1406C487.906 31.9531 488.189 31.8066 488.518 31.7012C488.85 31.5957 489.221 31.543 489.631 31.543C490.123 31.543 490.561 31.625 490.943 31.7891C491.326 31.9531 491.627 32.1992 491.846 32.5273C492.068 32.8555 492.18 33.2656 492.18 33.7578V36.4707C492.18 36.8184 492.201 37.1035 492.244 37.3262C492.287 37.5449 492.35 37.7363 492.432 37.9004V38H490.727C490.645 37.8281 490.582 37.6133 490.539 37.3555C490.5 37.0938 490.48 36.832 490.48 36.5703ZM490.703 34.1387L490.715 35.0938H489.771C489.549 35.0938 489.355 35.1191 489.191 35.1699C489.027 35.2207 488.893 35.293 488.787 35.3867C488.682 35.4766 488.604 35.582 488.553 35.7031C488.506 35.8242 488.482 35.957 488.482 36.1016C488.482 36.2461 488.516 36.377 488.582 36.4941C488.648 36.6074 488.744 36.6973 488.869 36.7637C488.994 36.8262 489.141 36.8574 489.309 36.8574C489.562 36.8574 489.783 36.8066 489.971 36.7051C490.158 36.6035 490.303 36.4785 490.404 36.3301C490.51 36.1816 490.564 36.041 490.568 35.9082L491.014 36.623C490.951 36.7832 490.865 36.9492 490.756 37.1211C490.65 37.293 490.516 37.4551 490.352 37.6074C490.188 37.7559 489.99 37.8789 489.76 37.9766C489.529 38.0703 489.256 38.1172 488.939 38.1172C488.537 38.1172 488.172 38.0371 487.844 37.877C487.52 37.7129 487.262 37.4883 487.07 37.2031C486.883 36.9141 486.789 36.5859 486.789 36.2188C486.789 35.8867 486.852 35.5918 486.977 35.334C487.102 35.0762 487.285 34.8594 487.527 34.6836C487.773 34.5039 488.08 34.3691 488.447 34.2793C488.814 34.1855 489.24 34.1387 489.725 34.1387H490.703ZM497.225 36.6172V29H498.924V38H497.395L497.225 36.6172ZM493.217 34.9062V34.7832C493.217 34.2988 493.271 33.8594 493.381 33.4648C493.49 33.0664 493.65 32.7246 493.861 32.4395C494.072 32.1543 494.332 31.9336 494.641 31.7773C494.949 31.6211 495.301 31.543 495.695 31.543C496.066 31.543 496.391 31.6211 496.668 31.7773C496.949 31.9336 497.188 32.1562 497.383 32.4453C497.582 32.7305 497.742 33.0684 497.863 33.459C497.984 33.8457 498.072 34.2695 498.127 34.7305V35C498.072 35.4414 497.984 35.8516 497.863 36.2305C497.742 36.6094 497.582 36.9414 497.383 37.2266C497.188 37.5078 496.949 37.7266 496.668 37.8828C496.387 38.0391 496.059 38.1172 495.684 38.1172C495.289 38.1172 494.938 38.0371 494.629 37.877C494.324 37.7168 494.066 37.4922 493.855 37.2031C493.648 36.9141 493.49 36.5742 493.381 36.1836C493.271 35.793 493.217 35.3672 493.217 34.9062ZM494.904 34.7832V34.9062C494.904 35.168 494.924 35.4121 494.963 35.6387C495.006 35.8652 495.074 36.0664 495.168 36.2422C495.266 36.4141 495.391 36.5488 495.543 36.6465C495.699 36.7402 495.889 36.7871 496.111 36.7871C496.4 36.7871 496.639 36.7227 496.826 36.5938C497.014 36.4609 497.156 36.2793 497.254 36.0488C497.355 35.8184 497.414 35.5527 497.43 35.252V34.4844C497.418 34.2383 497.383 34.0176 497.324 33.8223C497.27 33.623 497.188 33.4531 497.078 33.3125C496.973 33.1719 496.84 33.0625 496.68 32.9844C496.523 32.9062 496.338 32.8672 496.123 32.8672C495.904 32.8672 495.717 32.918 495.561 33.0195C495.404 33.1172 495.277 33.252 495.18 33.4238C495.086 33.5957 495.016 33.7988 494.969 34.0332C494.926 34.2637 494.904 34.5137 494.904 34.7832ZM499.973 34.8945V34.7715C499.973 34.3066 500.039 33.8789 500.172 33.4883C500.305 33.0938 500.498 32.752 500.752 32.4629C501.006 32.1738 501.318 31.9492 501.689 31.7891C502.061 31.625 502.486 31.543 502.967 31.543C503.447 31.543 503.875 31.625 504.25 31.7891C504.625 31.9492 504.939 32.1738 505.193 32.4629C505.451 32.752 505.646 33.0938 505.779 33.4883C505.912 33.8789 505.979 34.3066 505.979 34.7715V34.8945C505.979 35.3555 505.912 35.7832 505.779 36.1777C505.646 36.5684 505.451 36.9102 505.193 37.2031C504.939 37.4922 504.627 37.7168 504.256 37.877C503.885 38.0371 503.459 38.1172 502.979 38.1172C502.498 38.1172 502.07 38.0371 501.695 37.877C501.324 37.7168 501.01 37.4922 500.752 37.2031C500.498 36.9102 500.305 36.5684 500.172 36.1777C500.039 35.7832 499.973 35.3555 499.973 34.8945ZM501.66 34.7715V34.8945C501.66 35.1602 501.684 35.4082 501.73 35.6387C501.777 35.8691 501.852 36.0723 501.953 36.248C502.059 36.4199 502.195 36.5547 502.363 36.6523C502.531 36.75 502.736 36.7988 502.979 36.7988C503.213 36.7988 503.414 36.75 503.582 36.6523C503.75 36.5547 503.885 36.4199 503.986 36.248C504.088 36.0723 504.162 35.8691 504.209 35.6387C504.26 35.4082 504.285 35.1602 504.285 34.8945V34.7715C504.285 34.5137 504.26 34.2715 504.209 34.0449C504.162 33.8145 504.086 33.6113 503.98 33.4355C503.879 33.2559 503.744 33.1152 503.576 33.0137C503.408 32.9121 503.205 32.8613 502.967 32.8613C502.729 32.8613 502.525 32.9121 502.357 33.0137C502.193 33.1152 502.059 33.2559 501.953 33.4355C501.852 33.6113 501.777 33.8145 501.73 34.0449C501.684 34.2715 501.66 34.5137 501.66 34.7715ZM508.703 33.043V38H507.016V31.6602H508.604L508.703 33.043ZM510.613 31.6191L510.584 33.1836C510.502 33.1719 510.402 33.1621 510.285 33.1543C510.172 33.1426 510.068 33.1367 509.975 33.1367C509.736 33.1367 509.529 33.168 509.354 33.2305C509.182 33.2891 509.037 33.377 508.92 33.4941C508.807 33.6113 508.721 33.7539 508.662 33.9219C508.607 34.0898 508.576 34.2812 508.568 34.4961L508.229 34.3906C508.229 33.9805 508.27 33.6035 508.352 33.2598C508.434 32.9121 508.553 32.6094 508.709 32.3516C508.869 32.0938 509.064 31.8945 509.295 31.7539C509.525 31.6133 509.789 31.543 510.086 31.543C510.18 31.543 510.275 31.5508 510.373 31.5664C510.471 31.5781 510.551 31.5957 510.613 31.6191Z" fill="black"/>
<path d="M883.838 15.2188L885.848 8.46875H887.805L884.834 17H883.545L883.838 15.2188ZM881.986 8.46875L883.99 15.2188L884.295 17H882.994L880.041 8.46875H881.986ZM887.957 13.8945V13.7715C887.957 13.3066 888.023 12.8789 888.156 12.4883C888.289 12.0938 888.482 11.752 888.736 11.4629C888.99 11.1738 889.303 10.9492 889.674 10.7891C890.045 10.625 890.471 10.543 890.951 10.543C891.432 10.543 891.859 10.625 892.234 10.7891C892.609 10.9492 892.924 11.1738 893.178 11.4629C893.436 11.752 893.631 12.0938 893.764 12.4883C893.896 12.8789 893.963 13.3066 893.963 13.7715V13.8945C893.963 14.3555 893.896 14.7832 893.764 15.1777C893.631 15.5684 893.436 15.9102 893.178 16.2031C892.924 16.4922 892.611 16.7168 892.24 16.877C891.869 17.0371 891.443 17.1172 890.963 17.1172C890.482 17.1172 890.055 17.0371 889.68 16.877C889.309 16.7168 888.994 16.4922 888.736 16.2031C888.482 15.9102 888.289 15.5684 888.156 15.1777C888.023 14.7832 887.957 14.3555 887.957 13.8945ZM889.645 13.7715V13.8945C889.645 14.1602 889.668 14.4082 889.715 14.6387C889.762 14.8691 889.836 15.0723 889.938 15.248C890.043 15.4199 890.18 15.5547 890.348 15.6523C890.516 15.75 890.721 15.7988 890.963 15.7988C891.197 15.7988 891.398 15.75 891.566 15.6523C891.734 15.5547 891.869 15.4199 891.971 15.248C892.072 15.0723 892.146 14.8691 892.193 14.6387C892.244 14.4082 892.27 14.1602 892.27 13.8945V13.7715C892.27 13.5137 892.244 13.2715 892.193 13.0449C892.146 12.8145 892.07 12.6113 891.965 12.4355C891.863 12.2559 891.729 12.1152 891.561 12.0137C891.393 11.9121 891.189 11.8613 890.951 11.8613C890.713 11.8613 890.51 11.9121 890.342 12.0137C890.178 12.1152 890.043 12.2559 889.938 12.4355C889.836 12.6113 889.762 12.8145 889.715 13.0449C889.668 13.2715 889.645 13.5137 889.645 13.7715ZM901.434 13.2559H899.242L899.23 12.0488H901.07C901.395 12.0488 901.66 12.0078 901.867 11.9258C902.074 11.8398 902.229 11.7168 902.33 11.5566C902.436 11.3926 902.488 11.1934 902.488 10.959C902.488 10.6934 902.438 10.4785 902.336 10.3145C902.238 10.1504 902.084 10.0312 901.873 9.95703C901.666 9.88281 901.398 9.8457 901.07 9.8457H899.852V17H898.094V8.46875H901.07C901.566 8.46875 902.01 8.51562 902.4 8.60938C902.795 8.70312 903.129 8.8457 903.402 9.03711C903.676 9.22852 903.885 9.4707 904.029 9.76367C904.174 10.0527 904.246 10.3965 904.246 10.7949C904.246 11.1465 904.166 11.4707 904.006 11.7676C903.85 12.0645 903.602 12.3066 903.262 12.4941C902.926 12.6816 902.486 12.7852 901.943 12.8047L901.434 13.2559ZM901.357 17H898.762L899.447 15.6289H901.357C901.666 15.6289 901.918 15.5801 902.113 15.4824C902.309 15.3809 902.453 15.2441 902.547 15.0723C902.641 14.9004 902.688 14.7031 902.688 14.4805C902.688 14.2305 902.645 14.0137 902.559 13.8301C902.477 13.6465 902.344 13.5059 902.16 13.4082C901.977 13.3066 901.734 13.2559 901.434 13.2559H899.74L899.752 12.0488H901.861L902.266 12.5234C902.785 12.5156 903.203 12.6074 903.52 12.7988C903.84 12.9863 904.072 13.2305 904.217 13.5312C904.365 13.832 904.439 14.1543 904.439 14.498C904.439 15.0449 904.32 15.5059 904.082 15.8809C903.844 16.252 903.494 16.5312 903.033 16.7188C902.576 16.9062 902.018 17 901.357 17ZM905.383 13.8945V13.7715C905.383 13.3066 905.449 12.8789 905.582 12.4883C905.715 12.0938 905.908 11.752 906.162 11.4629C906.416 11.1738 906.729 10.9492 907.1 10.7891C907.471 10.625 907.896 10.543 908.377 10.543C908.857 10.543 909.285 10.625 909.66 10.7891C910.035 10.9492 910.35 11.1738 910.604 11.4629C910.861 11.752 911.057 12.0938 911.189 12.4883C911.322 12.8789 911.389 13.3066 911.389 13.7715V13.8945C911.389 14.3555 911.322 14.7832 911.189 15.1777C911.057 15.5684 910.861 15.9102 910.604 16.2031C910.35 16.4922 910.037 16.7168 909.666 16.877C909.295 17.0371 908.869 17.1172 908.389 17.1172C907.908 17.1172 907.48 17.0371 907.105 16.877C906.734 16.7168 906.42 16.4922 906.162 16.2031C905.908 15.9102 905.715 15.5684 905.582 15.1777C905.449 14.7832 905.383 14.3555 905.383 13.8945ZM907.07 13.7715V13.8945C907.07 14.1602 907.094 14.4082 907.141 14.6387C907.188 14.8691 907.262 15.0723 907.363 15.248C907.469 15.4199 907.605 15.5547 907.773 15.6523C907.941 15.75 908.146 15.7988 908.389 15.7988C908.623 15.7988 908.824 15.75 908.992 15.6523C909.16 15.5547 909.295 15.4199 909.396 15.248C909.498 15.0723 909.572 14.8691 909.619 14.6387C909.67 14.4082 909.695 14.1602 909.695 13.8945V13.7715C909.695 13.5137 909.67 13.2715 909.619 13.0449C909.572 12.8145 909.496 12.6113 909.391 12.4355C909.289 12.2559 909.154 12.1152 908.986 12.0137C908.818 11.9121 908.615 11.8613 908.377 11.8613C908.139 11.8613 907.936 11.9121 907.768 12.0137C907.604 12.1152 907.469 12.2559 907.363 12.4355C907.262 12.6113 907.188 12.8145 907.141 13.0449C907.094 13.2715 907.07 13.5137 907.07 13.7715ZM885.707 34.1699H887.459C887.424 34.7441 887.266 35.2539 886.984 35.6992C886.707 36.1445 886.318 36.4922 885.818 36.7422C885.322 36.9922 884.725 37.1172 884.025 37.1172C883.479 37.1172 882.988 37.0234 882.555 36.8359C882.121 36.6445 881.75 36.3711 881.441 36.0156C881.137 35.6602 880.904 35.2305 880.744 34.7266C880.584 34.2227 880.504 33.6582 880.504 33.0332V32.4414C880.504 31.8164 880.586 31.252 880.75 30.748C880.918 30.2402 881.156 29.8086 881.465 29.4531C881.777 29.0977 882.15 28.8242 882.584 28.6328C883.018 28.4414 883.502 28.3457 884.037 28.3457C884.748 28.3457 885.348 28.4746 885.836 28.7324C886.328 28.9902 886.709 29.3457 886.979 29.7988C887.252 30.252 887.416 30.7676 887.471 31.3457H885.713C885.693 31.002 885.625 30.7109 885.508 30.4727C885.391 30.2305 885.213 30.0488 884.975 29.9277C884.74 29.8027 884.428 29.7402 884.037 29.7402C883.744 29.7402 883.488 29.7949 883.27 29.9043C883.051 30.0137 882.867 30.1797 882.719 30.4023C882.57 30.625 882.459 30.9062 882.385 31.2461C882.314 31.582 882.279 31.9766 882.279 32.4297V33.0332C882.279 33.4746 882.312 33.8633 882.379 34.1992C882.445 34.5312 882.547 34.8125 882.684 35.043C882.824 35.2695 883.004 35.4414 883.223 35.5586C883.445 35.6719 883.713 35.7285 884.025 35.7285C884.393 35.7285 884.695 35.6699 884.934 35.5527C885.172 35.4355 885.354 35.2617 885.479 35.0312C885.607 34.8008 885.684 34.5137 885.707 34.1699ZM888.238 33.8945V33.7715C888.238 33.3066 888.305 32.8789 888.438 32.4883C888.57 32.0938 888.764 31.752 889.018 31.4629C889.271 31.1738 889.584 30.9492 889.955 30.7891C890.326 30.625 890.752 30.543 891.232 30.543C891.713 30.543 892.141 30.625 892.516 30.7891C892.891 30.9492 893.205 31.1738 893.459 31.4629C893.717 31.752 893.912 32.0938 894.045 32.4883C894.178 32.8789 894.244 33.3066 894.244 33.7715V33.8945C894.244 34.3555 894.178 34.7832 894.045 35.1777C893.912 35.5684 893.717 35.9102 893.459 36.2031C893.205 36.4922 892.893 36.7168 892.521 36.877C892.15 37.0371 891.725 37.1172 891.244 37.1172C890.764 37.1172 890.336 37.0371 889.961 36.877C889.59 36.7168 889.275 36.4922 889.018 36.2031C888.764 35.9102 888.57 35.5684 888.438 35.1777C888.305 34.7832 888.238 34.3555 888.238 33.8945ZM889.926 33.7715V33.8945C889.926 34.1602 889.949 34.4082 889.996 34.6387C890.043 34.8691 890.117 35.0723 890.219 35.248C890.324 35.4199 890.461 35.5547 890.629 35.6523C890.797 35.75 891.002 35.7988 891.244 35.7988C891.479 35.7988 891.68 35.75 891.848 35.6523C892.016 35.5547 892.15 35.4199 892.252 35.248C892.354 35.0723 892.428 34.8691 892.475 34.6387C892.525 34.4082 892.551 34.1602 892.551 33.8945V33.7715C892.551 33.5137 892.525 33.2715 892.475 33.0449C892.428 32.8145 892.352 32.6113 892.246 32.4355C892.145 32.2559 892.01 32.1152 891.842 32.0137C891.674 31.9121 891.471 31.8613 891.232 31.8613C890.994 31.8613 890.791 31.9121 890.623 32.0137C890.459 32.1152 890.324 32.2559 890.219 32.4355C890.117 32.6113 890.043 32.8145 889.996 33.0449C889.949 33.2715 889.926 33.5137 889.926 33.7715ZM895.012 33.8945V33.7715C895.012 33.3066 895.078 32.8789 895.211 32.4883C895.344 32.0938 895.537 31.752 895.791 31.4629C896.045 31.1738 896.357 30.9492 896.729 30.7891C897.1 30.625 897.525 30.543 898.006 30.543C898.486 30.543 898.914 30.625 899.289 30.7891C899.664 30.9492 899.979 31.1738 900.232 31.4629C900.49 31.752 900.686 32.0938 900.818 32.4883C900.951 32.8789 901.018 33.3066 901.018 33.7715V33.8945C901.018 34.3555 900.951 34.7832 900.818 35.1777C900.686 35.5684 900.49 35.9102 900.232 36.2031C899.979 36.4922 899.666 36.7168 899.295 36.877C898.924 37.0371 898.498 37.1172 898.018 37.1172C897.537 37.1172 897.109 37.0371 896.734 36.877C896.363 36.7168 896.049 36.4922 895.791 36.2031C895.537 35.9102 895.344 35.5684 895.211 35.1777C895.078 34.7832 895.012 34.3555 895.012 33.8945ZM896.699 33.7715V33.8945C896.699 34.1602 896.723 34.4082 896.77 34.6387C896.816 34.8691 896.891 35.0723 896.992 35.248C897.098 35.4199 897.234 35.5547 897.402 35.6523C897.57 35.75 897.775 35.7988 898.018 35.7988C898.252 35.7988 898.453 35.75 898.621 35.6523C898.789 35.5547 898.924 35.4199 899.025 35.248C899.127 35.0723 899.201 34.8691 899.248 34.6387C899.299 34.4082 899.324 34.1602 899.324 33.8945V33.7715C899.324 33.5137 899.299 33.2715 899.248 33.0449C899.201 32.8145 899.125 32.6113 899.02 32.4355C898.918 32.2559 898.783 32.1152 898.615 32.0137C898.447 31.9121 898.244 31.8613 898.006 31.8613C897.768 31.8613 897.564 31.9121 897.396 32.0137C897.232 32.1152 897.098 32.2559 896.992 32.4355C896.891 32.6113 896.816 32.8145 896.77 33.0449C896.723 33.2715 896.699 33.5137 896.699 33.7715ZM903.742 32.043V37H902.055V30.6602H903.643L903.742 32.043ZM905.652 30.6191L905.623 32.1836C905.541 32.1719 905.441 32.1621 905.324 32.1543C905.211 32.1426 905.107 32.1367 905.014 32.1367C904.775 32.1367 904.568 32.168 904.393 32.2305C904.221 32.2891 904.076 32.377 903.959 32.4941C903.846 32.6113 903.76 32.7539 903.701 32.9219C903.646 33.0898 903.615 33.2812 903.607 33.4961L903.268 33.3906C903.268 32.9805 903.309 32.6035 903.391 32.2598C903.473 31.9121 903.592 31.6094 903.748 31.3516C903.908 31.0938 904.104 30.8945 904.334 30.7539C904.564 30.6133 904.828 30.543 905.125 30.543C905.219 30.543 905.314 30.5508 905.412 30.5664C905.51 30.5781 905.59 30.5957 905.652 30.6191ZM905.605 36.1855C905.605 35.9355 905.691 35.7266 905.863 35.5586C906.039 35.3906 906.271 35.3066 906.561 35.3066C906.85 35.3066 907.08 35.3906 907.252 35.5586C907.428 35.7266 907.516 35.9355 907.516 36.1855C907.516 36.4355 907.428 36.6445 907.252 36.8125C907.08 36.9805 906.85 37.0645 906.561 37.0645C906.271 37.0645 906.039 36.9805 905.863 36.8125C905.691 36.6445 905.605 36.4355 905.605 36.1855ZM915.549 34.3809V28.4688H917.301V34.3809C917.301 34.9512 917.176 35.4414 916.926 35.8516C916.676 36.2578 916.334 36.5703 915.9 36.7891C915.471 37.0078 914.986 37.1172 914.447 37.1172C913.889 37.1172 913.395 37.0234 912.965 36.8359C912.535 36.6484 912.197 36.3613 911.951 35.9746C911.705 35.584 911.582 35.0898 911.582 34.4922H913.346C913.346 34.8047 913.389 35.0527 913.475 35.2363C913.564 35.4199 913.691 35.5508 913.855 35.6289C914.02 35.707 914.217 35.7461 914.447 35.7461C914.67 35.7461 914.863 35.6934 915.027 35.5879C915.191 35.4824 915.318 35.3281 915.408 35.125C915.502 34.9219 915.549 34.6738 915.549 34.3809ZM922.445 35.4824V30.6602H924.133V37H922.545L922.445 35.4824ZM922.633 34.1816L923.131 34.1699C923.131 34.5918 923.082 34.9844 922.984 35.3477C922.887 35.707 922.74 36.0195 922.545 36.2852C922.35 36.5469 922.104 36.752 921.807 36.9004C921.51 37.0449 921.16 37.1172 920.758 37.1172C920.449 37.1172 920.164 37.0742 919.902 36.9883C919.645 36.8984 919.422 36.7598 919.234 36.5723C919.051 36.3809 918.906 36.1367 918.801 35.8398C918.699 35.5391 918.648 35.1777 918.648 34.7559V30.6602H920.336V34.7676C920.336 34.9551 920.357 35.1133 920.4 35.2422C920.447 35.3711 920.512 35.4766 920.594 35.5586C920.676 35.6406 920.771 35.6992 920.881 35.7344C920.994 35.7695 921.119 35.7871 921.256 35.7871C921.604 35.7871 921.877 35.7168 922.076 35.5762C922.279 35.4355 922.422 35.2441 922.504 35.002C922.59 34.7559 922.633 34.4824 922.633 34.1816ZM930.467 35.6816V37H925.65V35.6816H930.467ZM930.373 31.6328L926.33 37H925.199V35.998L929.225 30.6602H930.373V31.6328ZM929.775 30.6602V31.9844H925.293V30.6602H929.775ZM935.447 30.6602H936.977V36.7891C936.977 37.3672 936.848 37.8574 936.59 38.2598C936.336 38.666 935.98 38.9727 935.523 39.1797C935.066 39.3906 934.535 39.4961 933.93 39.4961C933.664 39.4961 933.383 39.4609 933.086 39.3906C932.793 39.3203 932.512 39.2109 932.242 39.0625C931.977 38.9141 931.754 38.7266 931.574 38.5L932.318 37.5039C932.514 37.7305 932.74 37.9062 932.998 38.0312C933.256 38.1602 933.541 38.2246 933.854 38.2246C934.158 38.2246 934.416 38.168 934.627 38.0547C934.838 37.9453 935 37.7832 935.113 37.5684C935.227 37.3574 935.283 37.1016 935.283 36.8008V32.125L935.447 30.6602ZM931.182 33.9062V33.7832C931.182 33.2988 931.24 32.8594 931.357 32.4648C931.479 32.0664 931.648 31.7246 931.867 31.4395C932.09 31.1543 932.359 30.9336 932.676 30.7773C932.992 30.6211 933.35 30.543 933.748 30.543C934.17 30.543 934.523 30.6211 934.809 30.7773C935.094 30.9336 935.328 31.1562 935.512 31.4453C935.695 31.7305 935.838 32.0684 935.939 32.459C936.045 32.8457 936.127 33.2695 936.186 33.7305V34C936.127 34.4414 936.039 34.8516 935.922 35.2305C935.805 35.6094 935.65 35.9414 935.459 36.2266C935.268 36.5078 935.029 36.7266 934.744 36.8828C934.463 37.0391 934.127 37.1172 933.736 37.1172C933.346 37.1172 932.992 37.0371 932.676 36.877C932.363 36.7168 932.096 36.4922 931.873 36.2031C931.65 35.9141 931.479 35.5742 931.357 35.1836C931.24 34.793 931.182 34.3672 931.182 33.9062ZM932.869 33.7832V33.9062C932.869 34.168 932.895 34.4121 932.945 34.6387C932.996 34.8652 933.074 35.0664 933.18 35.2422C933.289 35.4141 933.424 35.5488 933.584 35.6465C933.748 35.7402 933.941 35.7871 934.164 35.7871C934.473 35.7871 934.725 35.7227 934.92 35.5938C935.115 35.4609 935.262 35.2793 935.359 35.0488C935.457 34.8184 935.514 34.5527 935.529 34.252V33.4844C935.521 33.2383 935.488 33.0176 935.43 32.8223C935.371 32.623 935.289 32.4531 935.184 32.3125C935.078 32.1719 934.941 32.0625 934.773 31.9844C934.605 31.9062 934.406 31.8672 934.176 31.8672C933.953 31.8672 933.76 31.918 933.596 32.0195C933.436 32.1172 933.301 32.252 933.191 32.4238C933.086 32.5957 933.006 32.7988 932.951 33.0332C932.896 33.2637 932.869 33.5137 932.869 33.7832ZM941.711 35.5703V32.7461C941.711 32.543 941.678 32.3691 941.611 32.2246C941.545 32.0762 941.441 31.9609 941.301 31.8789C941.164 31.7969 940.986 31.7559 940.768 31.7559C940.58 31.7559 940.418 31.7891 940.281 31.8555C940.145 31.918 940.039 32.0098 939.965 32.1309C939.891 32.248 939.854 32.3867 939.854 32.5469H938.166C938.166 32.2773 938.229 32.0215 938.354 31.7793C938.479 31.5371 938.66 31.3242 938.898 31.1406C939.137 30.9531 939.42 30.8066 939.748 30.7012C940.08 30.5957 940.451 30.543 940.861 30.543C941.354 30.543 941.791 30.625 942.174 30.7891C942.557 30.9531 942.857 31.1992 943.076 31.5273C943.299 31.8555 943.41 32.2656 943.41 32.7578V35.4707C943.41 35.8184 943.432 36.1035 943.475 36.3262C943.518 36.5449 943.58 36.7363 943.662 36.9004V37H941.957C941.875 36.8281 941.812 36.6133 941.77 36.3555C941.73 36.0938 941.711 35.832 941.711 35.5703ZM941.934 33.1387L941.945 34.0938H941.002C940.779 34.0938 940.586 34.1191 940.422 34.1699C940.258 34.2207 940.123 34.293 940.018 34.3867C939.912 34.4766 939.834 34.582 939.783 34.7031C939.736 34.8242 939.713 34.957 939.713 35.1016C939.713 35.2461 939.746 35.377 939.812 35.4941C939.879 35.6074 939.975 35.6973 940.1 35.7637C940.225 35.8262 940.371 35.8574 940.539 35.8574C940.793 35.8574 941.014 35.8066 941.201 35.7051C941.389 35.6035 941.533 35.4785 941.635 35.3301C941.74 35.1816 941.795 35.041 941.799 34.9082L942.244 35.623C942.182 35.7832 942.096 35.9492 941.986 36.1211C941.881 36.293 941.746 36.4551 941.582 36.6074C941.418 36.7559 941.221 36.8789 940.99 36.9766C940.76 37.0703 940.486 37.1172 940.17 37.1172C939.768 37.1172 939.402 37.0371 939.074 36.877C938.75 36.7129 938.492 36.4883 938.301 36.2031C938.113 35.9141 938.02 35.5859 938.02 35.2188C938.02 34.8867 938.082 34.5918 938.207 34.334C938.332 34.0762 938.516 33.8594 938.758 33.6836C939.004 33.5039 939.311 33.3691 939.678 33.2793C940.045 33.1855 940.471 33.1387 940.955 33.1387H941.934ZM946.398 31.9727V37H944.705V30.6602H946.293L946.398 31.9727ZM946.164 33.6074H945.695C945.695 33.166 945.748 32.7598 945.854 32.3887C945.963 32.0137 946.121 31.6895 946.328 31.416C946.539 31.1387 946.799 30.9238 947.107 30.7715C947.416 30.6191 947.773 30.543 948.18 30.543C948.461 30.543 948.719 30.5859 948.953 30.6719C949.188 30.7539 949.389 30.8848 949.557 31.0645C949.729 31.2402 949.861 31.4707 949.955 31.7559C950.049 32.0371 950.096 32.375 950.096 32.7695V37H948.408V32.957C948.408 32.668 948.369 32.4453 948.291 32.2891C948.213 32.1328 948.102 32.0234 947.957 31.9609C947.816 31.8984 947.646 31.8672 947.447 31.8672C947.229 31.8672 947.037 31.9121 946.873 32.002C946.713 32.0918 946.58 32.2168 946.475 32.377C946.369 32.5332 946.291 32.7168 946.24 32.9277C946.189 33.1387 946.164 33.3652 946.164 33.6074ZM949.938 33.4141L949.334 33.4902C949.334 33.0762 949.385 32.6914 949.486 32.3359C949.592 31.9805 949.746 31.668 949.949 31.3984C950.156 31.1289 950.412 30.9199 950.717 30.7715C951.021 30.6191 951.373 30.543 951.771 30.543C952.076 30.543 952.354 30.5879 952.604 30.6777C952.854 30.7637 953.066 30.9023 953.242 31.0938C953.422 31.2812 953.559 31.5273 953.652 31.832C953.75 32.1367 953.799 32.5098 953.799 32.9512V37H952.105V32.9512C952.105 32.6582 952.066 32.4355 951.988 32.2832C951.914 32.127 951.805 32.0195 951.66 31.9609C951.52 31.8984 951.352 31.8672 951.156 31.8672C950.953 31.8672 950.775 31.9082 950.623 31.9902C950.471 32.0684 950.344 32.1777 950.242 32.3184C950.141 32.459 950.064 32.623 950.014 32.8105C949.963 32.9941 949.938 33.1953 949.938 33.4141ZM956.887 30.6602V37H955.193V30.6602H956.887ZM955.088 29.0078C955.088 28.7617 955.174 28.5586 955.346 28.3984C955.518 28.2383 955.748 28.1582 956.037 28.1582C956.322 28.1582 956.551 28.2383 956.723 28.3984C956.898 28.5586 956.986 28.7617 956.986 29.0078C956.986 29.2539 956.898 29.457 956.723 29.6172C956.551 29.7773 956.322 29.8574 956.037 29.8574C955.748 29.8574 955.518 29.7773 955.346 29.6172C955.174 29.457 955.088 29.2539 955.088 29.0078ZM961.199 37.1172C960.707 37.1172 960.266 37.0391 959.875 36.8828C959.484 36.7227 959.152 36.502 958.879 36.2207C958.609 35.9395 958.402 35.6133 958.258 35.2422C958.113 34.8672 958.041 34.4688 958.041 34.0469V33.8125C958.041 33.332 958.109 32.8926 958.246 32.4941C958.383 32.0957 958.578 31.75 958.832 31.457C959.09 31.1641 959.402 30.9395 959.77 30.7832C960.137 30.623 960.551 30.543 961.012 30.543C961.461 30.543 961.859 30.6172 962.207 30.7656C962.555 30.9141 962.846 31.125 963.08 31.3984C963.318 31.6719 963.498 32 963.619 32.3828C963.74 32.7617 963.801 33.1836 963.801 33.6484V34.3516H958.762V33.2266H962.143V33.0977C962.143 32.8633 962.1 32.6543 962.014 32.4707C961.932 32.2832 961.807 32.1348 961.639 32.0254C961.471 31.916 961.256 31.8613 960.994 31.8613C960.771 31.8613 960.58 31.9102 960.42 32.0078C960.26 32.1055 960.129 32.2422 960.027 32.418C959.93 32.5938 959.855 32.8008 959.805 33.0391C959.758 33.2734 959.734 33.5312 959.734 33.8125V34.0469C959.734 34.3008 959.77 34.5352 959.84 34.75C959.914 34.9648 960.018 35.1504 960.15 35.3066C960.287 35.4629 960.451 35.584 960.643 35.6699C960.838 35.7559 961.059 35.7988 961.305 35.7988C961.609 35.7988 961.893 35.7402 962.154 35.623C962.42 35.502 962.648 35.3203 962.84 35.0781L963.66 35.9688C963.527 36.1602 963.346 36.3438 963.115 36.5195C962.889 36.6953 962.615 36.8398 962.295 36.9531C961.975 37.0625 961.609 37.1172 961.199 37.1172ZM966.414 32.0137V37H964.727V30.6602H966.309L966.414 32.0137ZM966.168 33.6074H965.711C965.711 33.1387 965.771 32.7168 965.893 32.3418C966.014 31.9629 966.184 31.6406 966.402 31.375C966.621 31.1055 966.881 30.9004 967.182 30.7598C967.486 30.6152 967.826 30.543 968.201 30.543C968.498 30.543 968.77 30.5859 969.016 30.6719C969.262 30.7578 969.473 30.8945 969.648 31.082C969.828 31.2695 969.965 31.5176 970.059 31.8262C970.156 32.1348 970.205 32.5117 970.205 32.957V37H968.506V32.9512C968.506 32.6699 968.467 32.4512 968.389 32.2949C968.311 32.1387 968.195 32.0293 968.043 31.9668C967.895 31.9004 967.711 31.8672 967.492 31.8672C967.266 31.8672 967.068 31.9121 966.9 32.002C966.736 32.0918 966.6 32.2168 966.49 32.377C966.385 32.5332 966.305 32.7168 966.25 32.9277C966.195 33.1387 966.168 33.3652 966.168 33.6074ZM974.594 30.6602V31.8555H970.902V30.6602H974.594ZM971.816 29.0957H973.504V35.0898C973.504 35.2734 973.527 35.4141 973.574 35.5117C973.625 35.6094 973.699 35.6777 973.797 35.7168C973.895 35.752 974.018 35.7695 974.166 35.7695C974.271 35.7695 974.365 35.7656 974.447 35.7578C974.533 35.7461 974.605 35.7344 974.664 35.7227L974.67 36.9648C974.525 37.0117 974.369 37.0488 974.201 37.0762C974.033 37.1035 973.848 37.1172 973.645 37.1172C973.273 37.1172 972.949 37.0566 972.672 36.9355C972.398 36.8105 972.188 36.6113 972.039 36.3379C971.891 36.0645 971.816 35.7051 971.816 35.2598V29.0957ZM975.133 33.8945V33.7715C975.133 33.3066 975.199 32.8789 975.332 32.4883C975.465 32.0938 975.658 31.752 975.912 31.4629C976.166 31.1738 976.479 30.9492 976.85 30.7891C977.221 30.625 977.646 30.543 978.127 30.543C978.607 30.543 979.035 30.625 979.41 30.7891C979.785 30.9492 980.1 31.1738 980.354 31.4629C980.611 31.752 980.807 32.0938 980.939 32.4883C981.072 32.8789 981.139 33.3066 981.139 33.7715V33.8945C981.139 34.3555 981.072 34.7832 980.939 35.1777C980.807 35.5684 980.611 35.9102 980.354 36.2031C980.1 36.4922 979.787 36.7168 979.416 36.877C979.045 37.0371 978.619 37.1172 978.139 37.1172C977.658 37.1172 977.23 37.0371 976.855 36.877C976.484 36.7168 976.17 36.4922 975.912 36.2031C975.658 35.9102 975.465 35.5684 975.332 35.1777C975.199 34.7832 975.133 34.3555 975.133 33.8945ZM976.82 33.7715V33.8945C976.82 34.1602 976.844 34.4082 976.891 34.6387C976.938 34.8691 977.012 35.0723 977.113 35.248C977.219 35.4199 977.355 35.5547 977.523 35.6523C977.691 35.75 977.896 35.7988 978.139 35.7988C978.373 35.7988 978.574 35.75 978.742 35.6523C978.91 35.5547 979.045 35.4199 979.146 35.248C979.248 35.0723 979.322 34.8691 979.369 34.6387C979.42 34.4082 979.445 34.1602 979.445 33.8945V33.7715C979.445 33.5137 979.42 33.2715 979.369 33.0449C979.322 32.8145 979.246 32.6113 979.141 32.4355C979.039 32.2559 978.904 32.1152 978.736 32.0137C978.568 31.9121 978.365 31.8613 978.127 31.8613C977.889 31.8613 977.686 31.9121 977.518 32.0137C977.354 32.1152 977.219 32.2559 977.113 32.4355C977.012 32.6113 976.938 32.8145 976.891 33.0449C976.844 33.2715 976.82 33.5137 976.82 33.7715Z" fill="black"/>
<path d="M94 37H371" stroke="black" stroke-opacity="0.9" stroke-width="2"/>
<path d="M532 43H810" stroke="black" stroke-opacity="0.9" stroke-width="2"/>
<path d="M1012 44H1290" stroke="black" stroke-opacity="0.9" stroke-width="2"/>
</svg>
